<svg xmlns:dc="http://purl.org/dc/elements/1.1/" xmlns:cc="http://creativecommons.org/ns#" xmlns:rdf="http://www.w3.org/1999/02/22-rdf-syntax-ns#" xmlns:svg="http://www.w3.org/2000/svg" xmlns="http://www.w3.org/2000/svg" xmlns:xlink="http://www.w3.org/1999/xlink" xmlns:sodipodi="http://sodipodi.sourceforge.net/DTD/sodipodi-0.dtd" xmlns:inkscape="http://www.inkscape.org/namespaces/inkscape" viewBox="0 0 69.999999 87.5" version="1.1" x="0px" y="0px" fill="white"><g transform="translate(-82.393755,-105.33571)"><g style="" transform="matrix(0.26458333,0,0,0.26458333,-33.403463,56.772624)" display="inline"><path style="color:#000000;font-style:normal;font-variant:normal;font-weight:normal;font-stretch:normal;font-size:medium;line-height:normal;font-family:sans-serif;font-variant-ligatures:normal;font-variant-position:normal;font-variant-caps:normal;font-variant-numeric:normal;font-variant-alternates:normal;font-feature-settings:normal;text-indent:0;text-align:start;text-decoration:none;text-decoration-line:none;text-decoration-style:solid;text-decoration-color:#000000;letter-spacing:normal;word-spacing:normal;text-transform:none;writing-mode:lr-tb;direction:ltr;text-orientation:mixed;dominant-baseline:auto;baseline-shift:baseline;text-anchor:start;white-space:normal;shape-padding:0;clip-rule:nonzero;display:inline;overflow:visible;visibility:visible;opacity:1;isolation:auto;mix-blend-mode:normal;color-interpolation:sRGB;color-interpolation-filters:linearRGB;solid-color:#000000;solid-opacity:1;vector-effect:none;fill:#FFFFFF;fill-opacity:1;fill-rule:nonzero;stroke:none;stroke-width:12;stroke-linecap:round;stroke-linejoin:round;stroke-miterlimit:4;stroke-dasharray:none;stroke-dashoffset:0;stroke-opacity:1;paint-order:normal;color-rendering:auto;image-rendering:auto;shape-rendering:auto;text-rendering:auto;enable-background:accumulate" d="m 132.28516,12.34375 c -66.183233,0 -119.966801,53.768864 -119.966801,119.93945 0,66.17059 53.783568,119.93946 119.966801,119.93946 66.18323,0 119.96484,-53.76887 119.96484,-119.93946 0,-66.170586 -53.78161,-119.93945 -119.96484,-119.93945 z m 0,12 c 59.6994,0 107.96484,48.255594 107.96484,107.93945 0,59.68386 -48.26544,107.93946 -107.96484,107.93946 -59.699403,0 -107.966801,-48.2556 -107.966801,-107.93946 0,-59.683856 48.267398,-107.93945 107.966801,-107.93945 z m -30.49219,46.798828 c -3.313571,3.4e-4 -5.999671,2.68642 -6.000001,6 V 126.2832 h -9.644531 c -3.34689,-0.0473 -6.085938,2.65276 -6.085938,6 0,3.34722 2.739048,6.04732 6.085938,6 h 9.644531 v 49.14258 c 3.3e-4,3.31358 2.68643,5.99967 6.000001,6 h 21.71289 c 33.65563,0 61.00001,-27.6649 61,-61.2832 0,-33.618311 -27.3817,-61.000002 -61,-61.000002 z m 6,12 h 15.71289 c 27.13302,0 49,21.866972 49,49.000002 0,27.13302 -21.90431,49.2832 -49,49.2832 H 107.79297 V 138.2832 h 18.35547 c 3.34689,0.0473 6.08398,-2.65278 6.08398,-6 0,-3.34724 -2.73709,-6.04733 -6.08398,-6 h -18.35547 z" transform="translate(437.65878,183.54552)"/></g></g></svg>