<svg xmlns="http://www.w3.org/2000/svg" xmlns:xlink="http://www.w3.org/1999/xlink" version="1.1" x="0px" y="0px" viewBox="0 0 100 125" enable-background="new 0 0 100 100" xml:space="preserve" fill="white"><g><path d="M25.094,50.547l24.332,14.337c0.157,0.093,0.332,0.139,0.508,0.139s0.351-0.046,0.507-0.139l24.495-14.419   c0.23-0.135,0.396-0.356,0.462-0.614c0.066-0.258,0.026-0.532-0.11-0.761L50.904,8.353c-0.181-0.302-0.507-0.486-0.858-0.486   s-0.678,0.185-0.858,0.486L24.744,49.172c-0.137,0.229-0.177,0.502-0.111,0.761C24.698,50.19,24.864,50.412,25.094,50.547z    M49.046,62.339L27.787,49.812l21.259-9.804V62.339z M51.046,40.014l21.2,9.715l-21.2,12.479V40.014z M51.046,37.814v-25.33   l20.891,34.903L51.046,37.814z M49.046,37.806l-20.951,9.661l20.951-34.985V37.806z"/><path d="M73.898,55.175L49.954,69.374L26.07,55.236c-0.407-0.241-0.925-0.164-1.245,0.183c-0.32,0.347-0.354,0.87-0.081,1.256   l24.394,34.471c0.188,0.265,0.492,0.422,0.816,0.422s0.629-0.157,0.816-0.422l24.454-34.532c0.272-0.386,0.238-0.909-0.081-1.256   C74.822,55.009,74.302,54.936,73.898,55.175z M48.954,71.106v16.317l-19.87-28.079L48.954,71.106z M50.954,87.425V71.106   l19.923-11.814L50.954,87.425z"/></g></svg>