<svg xmlns="http://www.w3.org/2000/svg" data-name="Layer 1" viewBox="0 0 100 125" x="0px" y="0px"><title>Transfer</title><path d="M74.71,49.58V68a1.25,1.25,0,0,1-2.5,0V54.25L63.93,68.59a1.25,1.25,0,0,1-1.08.63H57a1.25,1.25,0,1,1,0-2.5h5.14L72,49.58,62.12,32.44H57a1.25,1.25,0,1,1,0-2.5H72.91a1.25,1.25,0,0,1,0,2.5H65L74.54,49s0,.06,0,.09l0,.1A1.25,1.25,0,0,1,74.71,49.58ZM47.47,66.71H42.34L32.44,49.58l9.89-17.13h5.14a1.25,1.25,0,1,0,0-2.5H41.61a1.25,1.25,0,0,0-1.08.63L32.25,44.91V31.19a1.25,1.25,0,0,0-2.5,0V49.58a1.25,1.25,0,0,0,.09.43l0,.1s0,.06,0,.09l9.53,16.51H31.79a1.25,1.25,0,1,0,0,2.5H47.47a1.25,1.25,0,0,0,0-2.5Zm4.58,0A1.25,1.25,0,1,0,53.3,68,1.25,1.25,0,0,0,52.05,66.71Zm.18-34.26A1.25,1.25,0,1,0,51,31.19,1.25,1.25,0,0,0,52.23,32.45Zm-.18,26.71a9.59,9.59,0,0,0,9.58-9.58,1.25,1.25,0,0,0-2.5,0,7.09,7.09,0,0,1-7.08,7.08,1.25,1.25,0,0,0,0,2.5ZM53.3,41.25A1.25,1.25,0,0,0,52.05,40a9.59,9.59,0,0,0-9.58,9.58,1.25,1.25,0,0,0,2.5,0,7.09,7.09,0,0,1,7.08-7.08A1.25,1.25,0,0,0,53.3,41.25Z"/></svg>