<svg xmlns="http://www.w3.org/2000/svg" xmlns:xlink="http://www.w3.org/1999/xlink" version="1.1" x="0px" y="0px" viewBox="0 0 100 125" style="enable-background:new 0 0 100 100;" xml:space="preserve" fill="white"><path d="M83.452,71.631L83.452,71.631c-0.328-0.437-0.85-0.698-1.395-0.698H46.555l4.494-16.439l10.929-4.175  c0.671-0.256,1.121-0.91,1.121-1.627v-7.906c0-0.565-0.277-1.098-0.741-1.426c-0.466-0.328-1.047-0.406-1.597-0.212l-6.127,2.231  l7.198-26.329c0.143-0.525,0.033-1.091-0.289-1.507c-0.327-0.435-0.847-0.695-1.392-0.695H37.439c-0.804,0-1.499,0.544-1.69,1.32  l-9.366,37.5l-9.04,3.291c-0.684,0.251-1.143,0.909-1.143,1.637v8.673c0,0.575,0.282,1.111,0.747,1.429  c0.47,0.331,1.092,0.406,1.617,0.199l4.438-1.695l-4.941,19.786c-0.129,0.521-0.013,1.065,0.322,1.498  c0.333,0.422,0.833,0.664,1.369,0.664h58.486c0.766,0,1.452-0.511,1.668-1.242l3.82-12.738  C83.883,72.645,83.781,72.069,83.452,71.631z M80.75,73.647l-3.235,10.789H20.998l5.901-23.625l-7.983,3.046v-6.58l9.754-3.551  l9.529-38.163h20.678L50.63,45.727l9.754-3.553v5.846l-11.589,4.426l-5.798,21.2H80.75z"/></svg>