<svg xmlns:dc="http://purl.org/dc/elements/1.1/" xmlns:cc="http://creativecommons.org/ns#" xmlns:rdf="http://www.w3.org/1999/02/22-rdf-syntax-ns#" xmlns:svg="http://www.w3.org/2000/svg" xmlns="http://www.w3.org/2000/svg" xmlns:sodipodi="http://sodipodi.sourceforge.net/DTD/sodipodi-0.dtd" xmlns:inkscape="http://www.inkscape.org/namespaces/inkscape" version="1.1" x="0px" y="0px" viewBox="0 0 100 125" fill="white"><g transform="translate(0,-952.36218)"><path style="font-size:medium;font-style:normal;font-variant:normal;font-weight:normal;font-stretch:normal;text-indent:0;text-align:start;text-decoration:none;line-height:normal;letter-spacing:normal;word-spacing:normal;text-transform:none;direction:ltr;block-progression:tb;writing-mode:lr-tb;text-anchor:start;baseline-shift:baseline;opacity:1;color:#000000;fill:#FFFFF;fill-opacity:1;stroke:none;stroke-width:3.99999905000000000;marker:none;visibility:visible;display:inline;overflow:visible;enable-background:accumulate;font-family:Sans;-inkscape-font-specification:Sans" d="M 50 3 C 24.0663 3 3 24.06627 3 50 C 3 75.9336 24.066294 97 50 97 C 75.933696 97 97 75.9336 97 50 C 97 24.06627 75.93369 3 50 3 z M 50 7 C 73.77193 7 93 26.22803 93 50 C 93 53.081786 92.676824 56.102934 92.0625 59 L 73 59 L 73 35 A 2.0001995 2.0001995 0 0 0 69.4375 33.71875 L 50 57.78125 L 30.5625 33.71875 A 2.0001995 2.0001995 0 0 0 28.78125 33 A 2.0001995 2.0001995 0 0 0 27 35 L 27 59 L 7.9375 59 C 7.3231758 56.102934 7 53.081786 7 50 C 7 26.22803 26.22806 7 50 7 z M 31 40.65625 L 48.4375 62.25 A 2.0001995 2.0001995 0 0 0 51.5625 62.25 L 69 40.65625 L 69 61 A 2.0001995 2.0001995 0 0 0 71 63 L 91 63 C 85.502368 80.412745 69.244936 93 50 93 C 30.755055 93 14.49763 80.412745 9 63 L 29 63 A 2.0001995 2.0001995 0 0 0 31 61 L 31 40.65625 z " transform="translate(0,952.36218)"/></g></svg>