<svg xmlns="http://www.w3.org/2000/svg" xmlns:xlink="http://www.w3.org/1999/xlink" version="1.1" x="0px" y="0px" viewBox="0 0 100 125" enable-background="new 0 100 100 100" xml:space="preserve" fill="white"><path d="M82.901,68.886c-1.212-4.361-4.109-7.987-8.159-10.208c-2.576-1.413-5.494-2.158-8.446-2.159  c-0.037-0.008-0.075-0.013-0.114-0.013c-0.025,0.005-0.056,0-0.083,0c-3.566,0-6.488-2.788-6.529-6.249  c-0.041-3.409,2.786-6.279,6.303-6.397c0.016,0,0.03-0.001,0.046-0.003c3.033-0.026,6.016-0.836,8.629-2.345  c3.995-2.306,6.809-5.99,7.923-10.374c1.093-4.298,0.411-8.76-1.919-12.565c-4.852-7.922-15.437-10.535-23.592-5.829  c-3.995,2.306-6.809,5.989-7.923,10.373c-1.093,4.299-0.411,8.762,1.919,12.566c0.87,1.422,1.125,3.089,0.717,4.693  c-0.417,1.639-1.472,3.018-2.969,3.882c-2.999,1.729-6.94,0.807-8.79-2.059c-0.012-0.019-0.025-0.036-0.039-0.053  c-1.531-2.535-3.733-4.638-6.375-6.087c-8.26-4.53-18.783-1.69-23.453,6.334c-2.241,3.85-2.822,8.323-1.635,12.594  c1.212,4.362,4.11,7.988,8.16,10.21c8.263,4.533,18.783,1.689,23.453-6.334l0.039-0.07c0.013-0.017,0.025-0.033,0.036-0.052  c1.783-2.908,5.707-3.921,8.745-2.253c1.519,0.833,2.604,2.19,3.058,3.823c0.442,1.594,0.226,3.263-0.611,4.7  c-2.241,3.853-2.822,8.325-1.636,12.597c1.213,4.362,4.11,7.987,8.16,10.209c2.667,1.463,5.568,2.157,8.434,2.157  c6.011,0,11.857-3.058,15.021-8.492C83.508,77.63,84.089,73.157,82.901,68.886z"/></svg>