<svg xmlns="http://www.w3.org/2000/svg" xmlns:xlink="http://www.w3.org/1999/xlink" version="1.1" x="0px" y="0px" viewBox="0 0 100 125" enable-background="new 0 0 100 100" xml:space="preserve" fill="black"><path d="M34.899,81.909H17.652l1.644-9.266h6.056c1.821,0,3.296-1.477,3.296-3.299V30.681c0-1.822-1.475-3.291-3.296-3.291h-7.646  v-9.273h17.195V4.354h8.125v13.762h7.006V4.354h8.125v13.762h0.171c2.49,0,4.969,0.365,7.356,1.074  c2.321,0.697,4.511,1.779,6.474,3.199c2.148,1.555,3.939,3.551,5.256,5.852c1.349,2.355,2.059,5.02,2.059,7.734  c0,2.721-0.71,5.385-2.059,7.74c-0.828,1.449-1.844,2.771-3.023,3.951c0.295,0.17,0.587,0.346,0.874,0.521  c2.524,1.582,4.681,3.684,6.324,6.166c1.683,2.539,2.579,5.52,2.579,8.564c0,3.051-0.896,6.033-2.579,8.57  c-1.644,2.482-3.8,4.584-6.324,6.166c-2.28,1.422-4.764,2.496-7.367,3.172c-2.788,0.717-5.655,1.082-8.534,1.082h-1.206v13.832  h-8.125V81.909h-7.006v13.832h-8.125V81.909z M37.352,93.286h3.219v-13.83h11.914v13.83h3.217v-13.83h3.66  c2.672,0,5.331-0.338,7.917-1.006c2.362-0.611,4.616-1.582,6.684-2.875c2.227-1.393,4.129-3.248,5.579-5.443  c1.417-2.137,2.171-4.646,2.171-7.213s-0.754-5.07-2.171-7.215c-1.45-2.186-3.353-4.043-5.579-5.436  c-1.318-0.822-2.713-1.518-4.166-2.074c2.272-1.412,4.157-3.375,5.487-5.695c1.136-1.988,1.733-4.232,1.733-6.523  c0-2.285-0.598-4.535-1.733-6.52c-1.145-1.996-2.699-3.727-4.564-5.076c-1.742-1.258-3.682-2.221-5.741-2.834  c-2.157-0.646-4.398-0.977-6.651-0.977h-2.625V6.81h-3.217v13.76H40.57V6.81h-3.219v13.76H20.158v4.367h5.193  c3.176,0,5.75,2.572,5.75,5.744v38.664c0,3.178-2.573,5.752-5.75,5.752h-3.998l-0.775,4.359h16.773V93.286z"/><path d="M66.879,62.919c0,1.23-0.361,2.432-1.038,3.451c-0.913,1.379-2.109,2.547-3.511,3.426c-1.479,0.92-3.09,1.617-4.777,2.053  c-2.027,0.527-4.113,0.795-6.207,0.795h-8.321V53.202h8.321c2.094,0,4.18,0.266,6.207,0.793c1.688,0.438,3.299,1.125,4.777,2.055  c1.401,0.879,2.598,2.045,3.511,3.424C66.518,60.493,66.879,61.694,66.879,62.919z M67.887,58.116  c-1.105-1.674-2.558-3.086-4.256-4.148c-1.691-1.055-3.533-1.85-5.463-2.348c-2.228-0.578-4.521-0.873-6.822-0.873H40.57v24.35  h10.775c2.301,0,4.595-0.295,6.822-0.871c1.93-0.5,3.771-1.295,5.463-2.35c1.698-1.061,3.15-2.482,4.256-4.148  c0.943-1.428,1.446-3.1,1.446-4.809S68.83,59.544,67.887,58.116z"/><path d="M51.174,27.39c1.59,0,3.171,0.232,4.694,0.682c1.327,0.4,2.579,1.02,3.7,1.828c1.081,0.787,1.983,1.787,2.646,2.947  c0.545,0.955,0.833,2.031,0.833,3.129c0,1.104-0.288,2.18-0.833,3.135c-0.662,1.16-1.564,2.158-2.646,2.947  c-1.121,0.809-2.373,1.426-3.7,1.82c-1.523,0.457-3.104,0.689-4.694,0.689h-8.149V27.39H51.174z M40.57,24.937v22.084h10.604  c1.828,0,3.646-0.268,5.399-0.787c1.589-0.479,3.089-1.217,4.435-2.193c1.363-0.984,2.5-2.25,3.335-3.713  c0.76-1.322,1.158-2.82,1.158-4.352c0-1.527-0.398-3.023-1.158-4.354c-0.835-1.455-1.972-2.721-3.335-3.705  c-1.346-0.977-2.846-1.715-4.435-2.193c-1.753-0.521-3.571-0.787-5.399-0.787H40.57z"/></svg>