<svg height='100px' width='100px'  fill="#000000" xmlns="http://www.w3.org/2000/svg" xmlns:xlink="http://www.w3.org/1999/xlink" xmlns:sketch="http://www.bohemiancoding.com/sketch/ns" viewBox="0 0 100 100" version="1.1" x="0px" y="0px"><title>dogecoin-normal</title><description>Created with Sketch (http://www.bohemiancoding.com/sketch)</description><g stroke="none" stroke-width="1" fill="none" fill-rule="evenodd" sketch:type="MSPage"><g sketch:type="MSArtboardGroup" fill="#000000"><path d="M95,50 C95,75 75,95 50,95 C25,95 5,75 5,50 C5,25 25,5 50,5 C75,5 95,25 95,50 Z M35.1543812,55.35248 L35.1543812,75.596 L52.5058286,75.596 C66.4886799,75.596 76.1495591,64.69016 76.1495591,50.57672 C76.1495591,36.46328 66.4886799,25.7 52.5058286,25.7 L35.1543812,25.7 L35.1543812,45.6584 L28.4,45.6584 L28.4,55.35248 L35.1543812,55.35248 Z M43.8215103,45.6584 L43.8215103,35.60792 L51.5120786,35.60792 C59.5204389,35.60792 64.9229042,41.80928 64.9229042,50.71928 C64.9229042,59.62928 59.5204389,65.68808 51.5120786,65.68808 L43.8215103,65.68808 L43.8215103,55.35248 L53.4823894,55.35248 L53.4823894,45.6584 L43.8215103,45.6584 Z" sketch:type="MSShapeGroup"></path></g></g></svg>